<mxfile host="app.diagrams.net" modified="2024-04-15T11:20:26.092Z" agent="Mozilla/5.0 (Windows NT 10.0; Win64; x64) AppleWebKit/537.36 (KHTML, like Gecko) Chrome/123.0.0.0 Safari/537.36" version="24.2.5" etag="MHdlHZ2OuMNnJ5PBSzon" type="github">
  <diagram name="Page-1" id="Vs0a-3-qaJJfj9Yrm1Nl">
    <mxGraphModel>
      <root>
        <mxCell id="0" />
        <mxCell id="1" parent="0" />
      </root>
    </mxGraphModel>
  </diagram>
</mxfile>
